# xmcd CD database file
#
# Track frame offsets:
#	150
#	34091
#	57237
#	85487
#	115763
#	143964
#	164362
#	191840
#	226428
#
# Disc length: 3347 seconds
#
# Revision: 0
# Processed by: cddbd v1.4PL0 Copyright (c) Steve Scherf et al.
# Submitted via: CDex 1.50Beta5
#
DISCID=7b0d1109
DTITLE=Ray Anderson/Alligatory Band - Heads And Tales
DYEAR=1995
DGENRE=Jazz
TTITLE0=The Four Reasons: 1. Hunting And Gathering
TTITLE1=The Four Reasons: 2. Heads And Tales
TTITLE2=The Four Reasons: 3. Matters Of The Heart
TTITLE3=The Four Reasons: 4. Unsung Songs
TTITLE4=Cheek To Cheek
TTITLE5=Tapajack
TTITLE6=Tough Guy
TTITLE7=Road Song
TTITLE8=Drink And Blather
EXTD=YEAR: 1995
EXTT0=
EXTT1=
EXTT2=
EXTT3=
EXTT4=
EXTT5=
EXTT6=
EXTT7=
EXTT8=
PLAYORDER=
